<svg width="393" height="852" viewBox="0 0 393 852" fill="none" xmlns="http://www.w3.org/2000/svg">
<g clip-path="url(#clip0_5_106)">
<rect width="393" height="852" rx="30" fill="#F3F3F3"/>
<rect x="127" y="827" width="139" height="5" rx="2.5" fill="black"/>
<path d="M52.7666 25.7231C51.9089 25.7231 51.1424 25.9058 50.4673 26.271C49.7977 26.6307 49.272 27.1287 48.8901 27.7651C48.5138 28.396 48.3257 29.1182 48.3257 29.9316V29.9482C48.3257 30.7008 48.4917 31.376 48.8237 31.9736C49.1613 32.5713 49.6234 33.0417 50.21 33.3848C50.7965 33.7279 51.4717 33.8994 52.2354 33.8994C52.7887 33.8994 53.2702 33.8164 53.6797 33.6504C54.0947 33.4844 54.4434 33.2658 54.7256 32.9946C55.0078 32.7235 55.2209 32.4302 55.3647 32.1147H55.6553V29.9067H55.1572V29.9233C55.1572 30.3716 55.0521 30.7728 54.8418 31.127C54.6315 31.4811 54.3465 31.7578 53.9868 31.957C53.6271 32.1562 53.2204 32.2559 52.7666 32.2559C52.3128 32.2559 51.9089 32.1535 51.5547 31.9487C51.2005 31.744 50.9211 31.4645 50.7163 31.1104C50.5116 30.7507 50.4092 30.3384 50.4092 29.8735V29.8569C50.4092 29.4087 50.5171 29.0047 50.7329 28.645C50.9487 28.2798 51.2365 27.992 51.5962 27.7817C51.9559 27.5715 52.3516 27.4663 52.7832 27.4663C53.2314 27.4663 53.6326 27.5742 53.9868 27.79C54.3465 28.0059 54.6315 28.2992 54.8418 28.6699C55.0521 29.0407 55.1572 29.453 55.1572 29.9067L55.5308 31.9072C55.5308 31.9847 55.5308 32.0649 55.5308 32.1479C55.5308 32.2254 55.528 32.3057 55.5225 32.3887C55.4948 33.1523 55.3786 33.8496 55.1738 34.4805C54.9746 35.1058 54.673 35.6066 54.269 35.9829C53.8706 36.3537 53.356 36.5391 52.7251 36.5391C52.3765 36.5391 52.061 36.4837 51.7788 36.373C51.5021 36.2568 51.2642 36.0936 51.0649 35.8833C50.8713 35.673 50.7218 35.4295 50.6167 35.1528L50.5835 35.0698H48.4834L48.5 35.1611C48.6328 35.7699 48.8901 36.3122 49.272 36.7881C49.6593 37.2585 50.1463 37.6292 50.7329 37.9004C51.325 38.166 51.9891 38.2988 52.7251 38.2988C53.7267 38.2988 54.5872 38.0443 55.3066 37.5352C56.0316 37.0205 56.5877 36.2845 56.9751 35.3271C57.3625 34.3698 57.5562 33.2188 57.5562 31.874V31.8574C57.5562 30.7728 57.4289 29.8459 57.1743 29.0767C56.9198 28.3019 56.5684 27.6683 56.1201 27.1758C55.6774 26.6777 55.1683 26.3125 54.5928 26.0801C54.0173 25.8421 53.4085 25.7231 52.7666 25.7231ZM61.3247 36.3896C61.7065 36.3896 62.022 36.2651 62.271 36.0161C62.52 35.7616 62.6445 35.4517 62.6445 35.0864C62.6445 34.7157 62.52 34.4058 62.271 34.1567C62.022 33.9022 61.7065 33.7749 61.3247 33.7749C60.9484 33.7749 60.633 33.9022 60.3784 34.1567C60.1294 34.4058 60.0049 34.7157 60.0049 35.0864C60.0049 35.4517 60.1294 35.7616 60.3784 36.0161C60.633 36.2651 60.9484 36.3896 61.3247 36.3896ZM61.3247 30.2305C61.7065 30.2305 62.022 30.106 62.271 29.8569C62.52 29.6024 62.6445 29.2925 62.6445 28.9272C62.6445 28.5565 62.52 28.2466 62.271 27.9976C62.022 27.743 61.7065 27.6157 61.3247 27.6157C60.9484 27.6157 60.633 27.743 60.3784 27.9976C60.1294 28.2466 60.0049 28.5565 60.0049 28.9272C60.0049 29.2925 60.1294 29.6024 60.3784 29.8569C60.633 30.106 60.9484 30.2305 61.3247 30.2305ZM70.9038 38H72.9458V35.7007H74.5645V33.9326H72.9458V26.022H69.9326C69.6006 26.5145 69.2686 27.0208 68.9365 27.541C68.61 28.0557 68.2808 28.5786 67.9487 29.1099C67.6222 29.6356 67.293 30.1696 66.9609 30.7119C66.6344 31.2487 66.3107 31.7882 65.9897 32.3306C65.6743 32.8729 65.3589 33.4124 65.0435 33.9492V35.7007H70.9038V38ZM67.0356 33.9824V33.8579C67.2681 33.4484 67.5088 33.0361 67.7578 32.6211C68.0068 32.2005 68.2586 31.7827 68.5132 31.3677C68.7677 30.9471 69.0251 30.5293 69.2852 30.1143C69.5452 29.6992 69.8026 29.2925 70.0571 28.894C70.3172 28.4956 70.569 28.1082 70.8125 27.7319H70.937V33.9824H67.0356ZM79.52 38H81.6533V26.022H79.52L76.3906 28.2217V30.2305L79.3706 28.1304H79.52V38Z" fill="black"/>
<path fill-rule="evenodd" clip-rule="evenodd" d="M298.865 27.033C298.865 26.4 298.388 25.8868 297.798 25.8868H296.732C296.143 25.8868 295.665 26.4 295.665 27.033V36.967C295.665 37.6 296.143 38.1132 296.732 38.1132H297.798C298.388 38.1132 298.865 37.6 298.865 36.967V27.033ZM291.431 28.3321H292.498C293.087 28.3321 293.564 28.8576 293.564 29.5058V36.9395C293.564 37.5877 293.087 38.1132 292.498 38.1132H291.431C290.842 38.1132 290.364 37.5877 290.364 36.9395V29.5058C290.364 28.8576 290.842 28.3321 291.431 28.3321ZM287.099 30.9811H286.033C285.444 30.9811 284.966 31.5133 284.966 32.1698V36.9245C284.966 37.581 285.444 38.1132 286.033 38.1132H287.099C287.688 38.1132 288.166 37.581 288.166 36.9245V32.1698C288.166 31.5133 287.688 30.9811 287.099 30.9811ZM281.798 33.4264H280.732C280.143 33.4264 279.665 33.951 279.665 34.5981V36.9415C279.665 37.5886 280.143 38.1132 280.732 38.1132H281.798C282.388 38.1132 282.865 37.5886 282.865 36.9415V34.5981C282.865 33.951 282.388 33.4264 281.798 33.4264Z" fill="black"/>
<path fill-rule="evenodd" clip-rule="evenodd" d="M314.436 28.3021C316.924 28.3022 319.316 29.2243 321.118 30.8778C321.254 31.0054 321.471 31.0038 321.604 30.8742L322.902 29.6107C322.97 29.545 323.007 29.4559 323.007 29.3632C323.006 29.2705 322.967 29.1819 322.899 29.1169C318.168 24.7422 310.704 24.7422 305.973 29.1169C305.905 29.1818 305.866 29.2704 305.865 29.3631C305.864 29.4558 305.902 29.5449 305.97 29.6107L307.268 30.8742C307.401 31.004 307.618 31.0056 307.754 30.8778C309.557 29.2242 311.949 28.3021 314.436 28.3021ZM314.433 32.5224C315.79 32.5223 317.099 33.0341 318.105 33.9582C318.241 34.0893 318.456 34.0865 318.588 33.9518L319.876 32.6325C319.944 32.5633 319.981 32.4694 319.98 32.3718C319.979 32.2743 319.94 32.1812 319.871 32.1134C316.807 29.2226 312.062 29.2226 308.998 32.1134C308.929 32.1812 308.889 32.2743 308.889 32.3719C308.888 32.4695 308.925 32.5634 308.993 32.6325L310.28 33.9518C310.413 34.0865 310.627 34.0893 310.763 33.9582C311.769 33.0347 313.077 32.523 314.433 32.5224ZM316.957 35.316C316.959 35.4213 316.922 35.5229 316.855 35.5967L314.678 38.0514C314.615 38.1236 314.528 38.1642 314.437 38.1642C314.346 38.1642 314.259 38.1236 314.195 38.0514L312.018 35.5967C311.951 35.5228 311.914 35.4212 311.916 35.3159C311.918 35.2105 311.959 35.1108 312.029 35.0401C313.419 33.7262 315.455 33.7262 316.845 35.0401C316.915 35.1108 316.956 35.2106 316.957 35.316Z" fill="black"/>
<rect opacity="0.35" x="330.507" y="26" width="24" height="12" rx="3.8" stroke="black"/>
<path opacity="0.4" d="M356.007 30.2811V34.3566C356.812 34.0114 357.335 33.2085 357.335 32.3189C357.335 31.4293 356.812 30.6263 356.007 30.2811Z" fill="black"/>
<rect x="332.007" y="27.5" width="21" height="9" rx="2.5" fill="black"/>
<circle cx="197" cy="376" r="85" fill="#2A6CA1" fill-opacity="0.9"/>
<g clip-path="url(#clip1_5_106)">
<path d="M232.083 361.417L211.667 376L232.083 390.583V361.417Z" stroke="#F3F3F3" stroke-width="6" stroke-linecap="round" stroke-linejoin="round"/>
<path d="M205.833 355.583H173.75C170.528 355.583 167.917 358.195 167.917 361.417V390.583C167.917 393.805 170.528 396.417 173.75 396.417H205.833C209.055 396.417 211.667 393.805 211.667 390.583V361.417C211.667 358.195 209.055 355.583 205.833 355.583Z" stroke="#F3F3F3" stroke-width="6" stroke-linecap="round" stroke-linejoin="round"/>
</g>
<path d="M127.536 496.04V504.68C127.536 505.627 127.783 506.353 128.276 506.86C128.77 507.353 129.463 507.6 130.356 507.6C131.263 507.6 131.963 507.353 132.456 506.86C132.95 506.353 133.196 505.627 133.196 504.68V496.04H136.016V504.66C136.016 505.847 135.756 506.853 135.236 507.68C134.73 508.493 134.043 509.107 133.176 509.52C132.323 509.933 131.37 510.14 130.316 510.14C129.276 510.14 128.33 509.933 127.476 509.52C126.636 509.107 125.97 508.493 125.476 507.68C124.983 506.853 124.736 505.847 124.736 504.66V496.04H127.536ZM141.522 500.52C141.882 500.013 142.375 499.593 143.002 499.26C143.642 498.913 144.368 498.74 145.182 498.74C146.128 498.74 146.982 498.973 147.742 499.44C148.515 499.907 149.122 500.573 149.562 501.44C150.015 502.293 150.242 503.287 150.242 504.42C150.242 505.553 150.015 506.56 149.562 507.44C149.122 508.307 148.515 508.98 147.742 509.46C146.982 509.94 146.128 510.18 145.182 510.18C144.368 510.18 143.648 510.013 143.022 509.68C142.408 509.347 141.908 508.927 141.522 508.42V515.28H138.722V498.92H141.522V500.52ZM147.382 504.42C147.382 503.753 147.242 503.18 146.962 502.7C146.695 502.207 146.335 501.833 145.882 501.58C145.442 501.327 144.962 501.2 144.442 501.2C143.935 501.2 143.455 501.333 143.002 501.6C142.562 501.853 142.202 502.227 141.922 502.72C141.655 503.213 141.522 503.793 141.522 504.46C141.522 505.127 141.655 505.707 141.922 506.2C142.202 506.693 142.562 507.073 143.002 507.34C143.455 507.593 143.935 507.72 144.442 507.72C144.962 507.72 145.442 507.587 145.882 507.32C146.335 507.053 146.695 506.673 146.962 506.18C147.242 505.687 147.382 505.1 147.382 504.42ZM155.076 495.2V510H152.276V495.2H155.076ZM162.763 510.18C161.696 510.18 160.736 509.947 159.883 509.48C159.03 509 158.356 508.327 157.863 507.46C157.383 506.593 157.143 505.593 157.143 504.46C157.143 503.327 157.39 502.327 157.883 501.46C158.39 500.593 159.076 499.927 159.943 499.46C160.81 498.98 161.776 498.74 162.843 498.74C163.91 498.74 164.876 498.98 165.743 499.46C166.61 499.927 167.29 500.593 167.783 501.46C168.29 502.327 168.543 503.327 168.543 504.46C168.543 505.593 168.283 506.593 167.763 507.46C167.256 508.327 166.563 509 165.683 509.48C164.816 509.947 163.843 510.18 162.763 510.18ZM162.763 507.74C163.27 507.74 163.743 507.62 164.183 507.38C164.636 507.127 164.996 506.753 165.263 506.26C165.53 505.767 165.663 505.167 165.663 504.46C165.663 503.407 165.383 502.6 164.823 502.04C164.276 501.467 163.603 501.18 162.803 501.18C162.003 501.18 161.33 501.467 160.783 502.04C160.25 502.6 159.983 503.407 159.983 504.46C159.983 505.513 160.243 506.327 160.763 506.9C161.296 507.46 161.963 507.74 162.763 507.74ZM169.877 504.42C169.877 503.3 170.097 502.307 170.537 501.44C170.99 500.573 171.597 499.907 172.357 499.44C173.13 498.973 173.99 498.74 174.937 498.74C175.763 498.74 176.483 498.907 177.097 499.24C177.723 499.573 178.223 499.993 178.597 500.5V498.92H181.417V510H178.597V508.38C178.237 508.9 177.737 509.333 177.097 509.68C176.47 510.013 175.743 510.18 174.917 510.18C173.983 510.18 173.13 509.94 172.357 509.46C171.597 508.98 170.99 508.307 170.537 507.44C170.097 506.56 169.877 505.553 169.877 504.42ZM178.597 504.46C178.597 503.78 178.463 503.2 178.197 502.72C177.93 502.227 177.57 501.853 177.117 501.6C176.663 501.333 176.177 501.2 175.657 501.2C175.137 501.2 174.657 501.327 174.217 501.58C173.777 501.833 173.417 502.207 173.137 502.7C172.87 503.18 172.737 503.753 172.737 504.42C172.737 505.087 172.87 505.673 173.137 506.18C173.417 506.673 173.777 507.053 174.217 507.32C174.67 507.587 175.15 507.72 175.657 507.72C176.177 507.72 176.663 507.593 177.117 507.34C177.57 507.073 177.93 506.7 178.197 506.22C178.463 505.727 178.597 505.14 178.597 504.46ZM183.431 504.42C183.431 503.3 183.651 502.307 184.091 501.44C184.545 500.573 185.158 499.907 185.931 499.44C186.705 498.973 187.565 498.74 188.511 498.74C189.231 498.74 189.918 498.9 190.571 499.22C191.225 499.527 191.745 499.94 192.131 500.46V495.2H194.971V510H192.131V508.36C191.785 508.907 191.298 509.347 190.671 509.68C190.045 510.013 189.318 510.18 188.491 510.18C187.558 510.18 186.705 509.94 185.931 509.46C185.158 508.98 184.545 508.307 184.091 507.44C183.651 506.56 183.431 505.553 183.431 504.42ZM192.151 504.46C192.151 503.78 192.018 503.2 191.751 502.72C191.485 502.227 191.125 501.853 190.671 501.6C190.218 501.333 189.731 501.2 189.211 501.2C188.691 501.2 188.211 501.327 187.771 501.58C187.331 501.833 186.971 502.207 186.691 502.7C186.425 503.18 186.291 503.753 186.291 504.42C186.291 505.087 186.425 505.673 186.691 506.18C186.971 506.673 187.331 507.053 187.771 507.32C188.225 507.587 188.705 507.72 189.211 507.72C189.731 507.72 190.218 507.593 190.671 507.34C191.125 507.073 191.485 506.7 191.751 506.22C192.018 505.727 192.151 505.14 192.151 504.46ZM201.752 504.42C201.752 503.3 201.972 502.307 202.412 501.44C202.865 500.573 203.472 499.907 204.232 499.44C205.005 498.973 205.865 498.74 206.812 498.74C207.638 498.74 208.358 498.907 208.972 499.24C209.598 499.573 210.098 499.993 210.472 500.5V498.92H213.292V510H210.472V508.38C210.112 508.9 209.612 509.333 208.972 509.68C208.345 510.013 207.618 510.18 206.792 510.18C205.858 510.18 205.005 509.94 204.232 509.46C203.472 508.98 202.865 508.307 202.412 507.44C201.972 506.56 201.752 505.553 201.752 504.42ZM210.472 504.46C210.472 503.78 210.338 503.2 210.072 502.72C209.805 502.227 209.445 501.853 208.992 501.6C208.538 501.333 208.052 501.2 207.532 501.2C207.012 501.2 206.532 501.327 206.092 501.58C205.652 501.833 205.292 502.207 205.012 502.7C204.745 503.18 204.612 503.753 204.612 504.42C204.612 505.087 204.745 505.673 205.012 506.18C205.292 506.673 205.652 507.053 206.092 507.32C206.545 507.587 207.025 507.72 207.532 507.72C208.052 507.72 208.538 507.593 208.992 507.34C209.445 507.073 209.805 506.7 210.072 506.22C210.338 505.727 210.472 505.14 210.472 504.46ZM225.412 507.42L228.212 498.92H231.192L227.092 510H223.692L219.612 498.92H222.612L225.412 507.42ZM234.185 497.6C233.691 497.6 233.278 497.447 232.945 497.14C232.625 496.82 232.465 496.427 232.465 495.96C232.465 495.493 232.625 495.107 232.945 494.8C233.278 494.48 233.691 494.32 234.185 494.32C234.678 494.32 235.085 494.48 235.405 494.8C235.738 495.107 235.905 495.493 235.905 495.96C235.905 496.427 235.738 496.82 235.405 497.14C235.085 497.447 234.678 497.6 234.185 497.6ZM235.565 498.92V510H232.765V498.92H235.565ZM237.611 504.42C237.611 503.3 237.831 502.307 238.271 501.44C238.725 500.573 239.338 499.907 240.111 499.44C240.885 498.973 241.745 498.74 242.691 498.74C243.411 498.74 244.098 498.9 244.751 499.22C245.405 499.527 245.925 499.94 246.311 500.46V495.2H249.151V510H246.311V508.36C245.965 508.907 245.478 509.347 244.851 509.68C244.225 510.013 243.498 510.18 242.671 510.18C241.738 510.18 240.885 509.94 240.111 509.46C239.338 508.98 238.725 508.307 238.271 507.44C237.831 506.56 237.611 505.553 237.611 504.42ZM246.331 504.46C246.331 503.78 246.198 503.2 245.931 502.72C245.665 502.227 245.305 501.853 244.851 501.6C244.398 501.333 243.911 501.2 243.391 501.2C242.871 501.2 242.391 501.327 241.951 501.58C241.511 501.833 241.151 502.207 240.871 502.7C240.605 503.18 240.471 503.753 240.471 504.42C240.471 505.087 240.605 505.673 240.871 506.18C241.151 506.673 241.511 507.053 241.951 507.32C242.405 507.587 242.885 507.72 243.391 507.72C243.911 507.72 244.398 507.593 244.851 507.34C245.305 507.073 245.665 506.7 245.931 506.22C246.198 505.727 246.331 505.14 246.331 504.46ZM262.186 504.22C262.186 504.62 262.159 504.98 262.106 505.3H254.006C254.073 506.1 254.353 506.727 254.846 507.18C255.339 507.633 255.946 507.86 256.666 507.86C257.706 507.86 258.446 507.413 258.886 506.52H261.906C261.586 507.587 260.973 508.467 260.066 509.16C259.159 509.84 258.046 510.18 256.726 510.18C255.659 510.18 254.699 509.947 253.846 509.48C253.006 509 252.346 508.327 251.866 507.46C251.399 506.593 251.166 505.593 251.166 504.46C251.166 503.313 251.399 502.307 251.866 501.44C252.333 500.573 252.986 499.907 253.826 499.44C254.666 498.973 255.633 498.74 256.726 498.74C257.779 498.74 258.719 498.967 259.546 499.42C260.386 499.873 261.033 500.52 261.486 501.36C261.953 502.187 262.186 503.14 262.186 504.22ZM259.286 503.42C259.273 502.7 259.013 502.127 258.506 501.7C257.999 501.26 257.379 501.04 256.646 501.04C255.953 501.04 255.366 501.253 254.886 501.68C254.419 502.093 254.133 502.673 254.026 503.42H259.286ZM269.15 510.18C268.083 510.18 267.123 509.947 266.27 509.48C265.416 509 264.743 508.327 264.25 507.46C263.77 506.593 263.53 505.593 263.53 504.46C263.53 503.327 263.776 502.327 264.27 501.46C264.776 500.593 265.463 499.927 266.33 499.46C267.196 498.98 268.163 498.74 269.23 498.74C270.296 498.74 271.263 498.98 272.13 499.46C272.996 499.927 273.676 500.593 274.17 501.46C274.676 502.327 274.93 503.327 274.93 504.46C274.93 505.593 274.67 506.593 274.15 507.46C273.643 508.327 272.95 509 272.07 509.48C271.203 509.947 270.23 510.18 269.15 510.18ZM269.15 507.74C269.656 507.74 270.13 507.62 270.57 507.38C271.023 507.127 271.383 506.753 271.65 506.26C271.916 505.767 272.05 505.167 272.05 504.46C272.05 503.407 271.77 502.6 271.21 502.04C270.663 501.467 269.99 501.18 269.19 501.18C268.39 501.18 267.716 501.467 267.17 502.04C266.636 502.6 266.37 503.407 266.37 504.46C266.37 505.513 266.63 506.327 267.15 506.9C267.683 507.46 268.35 507.74 269.15 507.74Z" fill="black"/>
<path d="M181.876 749H177.772L170.908 738.608V749H166.804V732.152H170.908L177.772 742.592V732.152H181.876V749ZM188.955 735.44V738.848H194.451V742.016H188.955V745.712H195.171V749H184.851V732.152H195.171V735.44H188.955ZM208.156 749L204.724 743.84L201.7 749H197.044L202.444 740.432L196.924 732.152H201.7L205.084 737.24L208.06 732.152H212.716L207.364 740.648L212.932 749H208.156ZM227.112 732.152V735.44H222.648V749H218.544V735.44H214.08V732.152H227.112Z" fill="white"/>
</g>
<defs>
<clipPath id="clip0_5_106">
<rect width="393" height="852" rx="30" fill="white"/>
</clipPath>
<clipPath id="clip1_5_106">
<rect width="70" height="70" fill="white" transform="translate(165 341)"/>
</clipPath>
</defs>
</svg>
