<svg width="393" height="852" viewBox="0 0 393 852" fill="none" xmlns="http://www.w3.org/2000/svg">
<g clip-path="url(#clip0_16_216)">
<rect width="393" height="852" rx="30" fill="white"/>
<path d="M52.7666 25.7231C51.9089 25.7231 51.1424 25.9058 50.4673 26.271C49.7977 26.6307 49.272 27.1287 48.8901 27.7651C48.5138 28.396 48.3257 29.1182 48.3257 29.9316V29.9482C48.3257 30.7008 48.4917 31.376 48.8237 31.9736C49.1613 32.5713 49.6234 33.0417 50.21 33.3848C50.7965 33.7279 51.4717 33.8994 52.2354 33.8994C52.7887 33.8994 53.2702 33.8164 53.6797 33.6504C54.0947 33.4844 54.4434 33.2658 54.7256 32.9946C55.0078 32.7235 55.2209 32.4302 55.3647 32.1147H55.6553V29.9067H55.1572V29.9233C55.1572 30.3716 55.0521 30.7728 54.8418 31.127C54.6315 31.4811 54.3465 31.7578 53.9868 31.957C53.6271 32.1562 53.2204 32.2559 52.7666 32.2559C52.3128 32.2559 51.9089 32.1535 51.5547 31.9487C51.2005 31.744 50.9211 31.4645 50.7163 31.1104C50.5116 30.7507 50.4092 30.3384 50.4092 29.8735V29.8569C50.4092 29.4087 50.5171 29.0047 50.7329 28.645C50.9487 28.2798 51.2365 27.992 51.5962 27.7817C51.9559 27.5715 52.3516 27.4663 52.7832 27.4663C53.2314 27.4663 53.6326 27.5742 53.9868 27.79C54.3465 28.0059 54.6315 28.2992 54.8418 28.6699C55.0521 29.0407 55.1572 29.453 55.1572 29.9067L55.5308 31.9072C55.5308 31.9847 55.5308 32.0649 55.5308 32.1479C55.5308 32.2254 55.528 32.3057 55.5225 32.3887C55.4948 33.1523 55.3786 33.8496 55.1738 34.4805C54.9746 35.1058 54.673 35.6066 54.269 35.9829C53.8706 36.3537 53.356 36.5391 52.7251 36.5391C52.3765 36.5391 52.061 36.4837 51.7788 36.373C51.5021 36.2568 51.2642 36.0936 51.0649 35.8833C50.8713 35.673 50.7218 35.4295 50.6167 35.1528L50.5835 35.0698H48.4834L48.5 35.1611C48.6328 35.7699 48.8901 36.3122 49.272 36.7881C49.6593 37.2585 50.1463 37.6292 50.7329 37.9004C51.325 38.166 51.9891 38.2988 52.7251 38.2988C53.7267 38.2988 54.5872 38.0443 55.3066 37.5352C56.0316 37.0205 56.5877 36.2845 56.9751 35.3271C57.3625 34.3698 57.5562 33.2188 57.5562 31.874V31.8574C57.5562 30.7728 57.4289 29.8459 57.1743 29.0767C56.9198 28.3019 56.5684 27.6683 56.1201 27.1758C55.6774 26.6777 55.1683 26.3125 54.5928 26.0801C54.0173 25.8421 53.4085 25.7231 52.7666 25.7231ZM61.3247 36.3896C61.7065 36.3896 62.022 36.2651 62.271 36.0161C62.52 35.7616 62.6445 35.4517 62.6445 35.0864C62.6445 34.7157 62.52 34.4058 62.271 34.1567C62.022 33.9022 61.7065 33.7749 61.3247 33.7749C60.9484 33.7749 60.633 33.9022 60.3784 34.1567C60.1294 34.4058 60.0049 34.7157 60.0049 35.0864C60.0049 35.4517 60.1294 35.7616 60.3784 36.0161C60.633 36.2651 60.9484 36.3896 61.3247 36.3896ZM61.3247 30.2305C61.7065 30.2305 62.022 30.106 62.271 29.8569C62.52 29.6024 62.6445 29.2925 62.6445 28.9272C62.6445 28.5565 62.52 28.2466 62.271 27.9976C62.022 27.743 61.7065 27.6157 61.3247 27.6157C60.9484 27.6157 60.633 27.743 60.3784 27.9976C60.1294 28.2466 60.0049 28.5565 60.0049 28.9272C60.0049 29.2925 60.1294 29.6024 60.3784 29.8569C60.633 30.106 60.9484 30.2305 61.3247 30.2305ZM70.9038 38H72.9458V35.7007H74.5645V33.9326H72.9458V26.022H69.9326C69.6006 26.5145 69.2686 27.0208 68.9365 27.541C68.61 28.0557 68.2808 28.5786 67.9487 29.1099C67.6222 29.6356 67.293 30.1696 66.9609 30.7119C66.6344 31.2487 66.3107 31.7882 65.9897 32.3306C65.6743 32.8729 65.3589 33.4124 65.0435 33.9492V35.7007H70.9038V38ZM67.0356 33.9824V33.8579C67.2681 33.4484 67.5088 33.0361 67.7578 32.6211C68.0068 32.2005 68.2586 31.7827 68.5132 31.3677C68.7677 30.9471 69.0251 30.5293 69.2852 30.1143C69.5452 29.6992 69.8026 29.2925 70.0571 28.894C70.3172 28.4956 70.569 28.1082 70.8125 27.7319H70.937V33.9824H67.0356ZM79.52 38H81.6533V26.022H79.52L76.3906 28.2217V30.2305L79.3706 28.1304H79.52V38Z" fill="black"/>
<path fill-rule="evenodd" clip-rule="evenodd" d="M298.865 27.033C298.865 26.4 298.387 25.8868 297.798 25.8868H296.732C296.143 25.8868 295.665 26.4 295.665 27.033V36.967C295.665 37.6 296.143 38.1132 296.732 38.1132H297.798C298.387 38.1132 298.865 37.6 298.865 36.967V27.033ZM291.431 28.3321H292.498C293.087 28.3321 293.564 28.8576 293.564 29.5058V36.9395C293.564 37.5877 293.087 38.1132 292.498 38.1132H291.431C290.842 38.1132 290.364 37.5877 290.364 36.9395V29.5058C290.364 28.8576 290.842 28.3321 291.431 28.3321ZM287.099 30.9811H286.032C285.443 30.9811 284.966 31.5133 284.966 32.1698V36.9245C284.966 37.581 285.443 38.1132 286.032 38.1132H287.099C287.688 38.1132 288.166 37.581 288.166 36.9245V32.1698C288.166 31.5133 287.688 30.9811 287.099 30.9811ZM281.798 33.4264H280.732C280.143 33.4264 279.665 33.951 279.665 34.5981V36.9415C279.665 37.5886 280.143 38.1132 280.732 38.1132H281.798C282.387 38.1132 282.865 37.5886 282.865 36.9415V34.5981C282.865 33.951 282.387 33.4264 281.798 33.4264Z" fill="black"/>
<path fill-rule="evenodd" clip-rule="evenodd" d="M314.437 28.3021C316.924 28.3022 319.316 29.2243 321.118 30.8778C321.254 31.0054 321.471 31.0038 321.605 30.8742L322.902 29.6107C322.97 29.545 323.007 29.4559 323.007 29.3632C323.006 29.2705 322.968 29.1819 322.899 29.1169C318.168 24.7422 310.704 24.7422 305.973 29.1169C305.905 29.1818 305.866 29.2704 305.865 29.3631C305.865 29.4558 305.902 29.5449 305.97 29.6107L307.268 30.8742C307.401 31.004 307.619 31.0056 307.754 30.8778C309.557 29.2242 311.949 28.3021 314.437 28.3021ZM314.433 32.5224C315.791 32.5223 317.099 33.0341 318.106 33.9582C318.242 34.0893 318.456 34.0865 318.589 33.9518L319.876 32.6325C319.944 32.5633 319.981 32.4694 319.98 32.3718C319.979 32.2743 319.94 32.1812 319.871 32.1134C316.807 29.2226 312.062 29.2226 308.998 32.1134C308.929 32.1812 308.89 32.2743 308.889 32.3719C308.888 32.4695 308.926 32.5634 308.993 32.6325L310.28 33.9518C310.413 34.0865 310.627 34.0893 310.763 33.9582C311.769 33.0347 313.077 32.523 314.433 32.5224ZM316.958 35.316C316.96 35.4213 316.922 35.5229 316.855 35.5967L314.679 38.0514C314.615 38.1236 314.528 38.1642 314.437 38.1642C314.346 38.1642 314.259 38.1236 314.195 38.0514L312.018 35.5967C311.951 35.5228 311.914 35.4212 311.916 35.3159C311.918 35.2105 311.959 35.1108 312.029 35.0401C313.419 33.7262 315.455 33.7262 316.845 35.0401C316.915 35.1108 316.956 35.2106 316.958 35.316Z" fill="black"/>
<rect opacity="0.35" x="330.507" y="26" width="24" height="12" rx="3.8" stroke="black"/>
<path opacity="0.4" d="M356.007 30.2811V34.3566C356.812 34.0114 357.335 33.2085 357.335 32.3189C357.335 31.4293 356.812 30.6263 356.007 30.2811Z" fill="black"/>
<rect x="332.007" y="27.5" width="21" height="9" rx="2.5" fill="black"/>
<rect x="127" y="824" width="139" height="5" rx="2.5" fill="black"/>
<g filter="url(#filter0_d_16_216)">
<path d="M48 726C48 714.954 56.9543 706 68 706H325C336.046 706 345 714.954 345 726V753C345 764.046 336.046 773 325 773H68C56.9543 773 48 764.046 48 753V726Z" fill="#4388BF"/>
</g>
<path d="M181.876 748H177.772L170.908 737.608V748H166.804V731.152H170.908L177.772 741.592V731.152H181.876V748ZM188.955 734.44V737.848H194.451V741.016H188.955V744.712H195.171V748H184.851V731.152H195.171V734.44H188.955ZM208.156 748L204.724 742.84L201.7 748H197.044L202.444 739.432L196.924 731.152H201.7L205.084 736.24L208.06 731.152H212.716L207.364 739.648L212.932 748H208.156ZM227.112 731.152V734.44H222.648V748H218.544V734.44H214.08V731.152H227.112Z" fill="white"/>
<path d="M141.332 468.04L136.212 482H132.812L127.692 468.04H130.692L134.532 479.14L138.352 468.04H141.332ZM144.431 469.6C143.938 469.6 143.524 469.447 143.191 469.14C142.871 468.82 142.711 468.427 142.711 467.96C142.711 467.493 142.871 467.107 143.191 466.8C143.524 466.48 143.938 466.32 144.431 466.32C144.924 466.32 145.331 466.48 145.651 466.8C145.984 467.107 146.151 467.493 146.151 467.96C146.151 468.427 145.984 468.82 145.651 469.14C145.331 469.447 144.924 469.6 144.431 469.6ZM145.811 470.92V482H143.011V470.92H145.811ZM147.857 476.42C147.857 475.3 148.077 474.307 148.517 473.44C148.971 472.573 149.584 471.907 150.357 471.44C151.131 470.973 151.991 470.74 152.937 470.74C153.657 470.74 154.344 470.9 154.997 471.22C155.651 471.527 156.171 471.94 156.557 472.46V467.2H159.397V482H156.557V480.36C156.211 480.907 155.724 481.347 155.097 481.68C154.471 482.013 153.744 482.18 152.917 482.18C151.984 482.18 151.131 481.94 150.357 481.46C149.584 480.98 148.971 480.307 148.517 479.44C148.077 478.56 147.857 477.553 147.857 476.42ZM156.577 476.46C156.577 475.78 156.444 475.2 156.177 474.72C155.911 474.227 155.551 473.853 155.097 473.6C154.644 473.333 154.157 473.2 153.637 473.2C153.117 473.2 152.637 473.327 152.197 473.58C151.757 473.833 151.397 474.207 151.117 474.7C150.851 475.18 150.717 475.753 150.717 476.42C150.717 477.087 150.851 477.673 151.117 478.18C151.397 478.673 151.757 479.053 152.197 479.32C152.651 479.587 153.131 479.72 153.637 479.72C154.157 479.72 154.644 479.593 155.097 479.34C155.551 479.073 155.911 478.7 156.177 478.22C156.444 477.727 156.577 477.14 156.577 476.46ZM172.432 476.22C172.432 476.62 172.405 476.98 172.352 477.3H164.252C164.319 478.1 164.599 478.727 165.092 479.18C165.585 479.633 166.192 479.86 166.912 479.86C167.952 479.86 168.692 479.413 169.132 478.52H172.152C171.832 479.587 171.219 480.467 170.312 481.16C169.405 481.84 168.292 482.18 166.972 482.18C165.905 482.18 164.945 481.947 164.092 481.48C163.252 481 162.592 480.327 162.112 479.46C161.645 478.593 161.412 477.593 161.412 476.46C161.412 475.313 161.645 474.307 162.112 473.44C162.579 472.573 163.232 471.907 164.072 471.44C164.912 470.973 165.879 470.74 166.972 470.74C168.025 470.74 168.965 470.967 169.792 471.42C170.632 471.873 171.279 472.52 171.732 473.36C172.199 474.187 172.432 475.14 172.432 476.22ZM169.532 475.42C169.519 474.7 169.259 474.127 168.752 473.7C168.245 473.26 167.625 473.04 166.892 473.04C166.199 473.04 165.612 473.253 165.132 473.68C164.665 474.093 164.379 474.673 164.272 475.42H169.532ZM179.396 482.18C178.329 482.18 177.369 481.947 176.516 481.48C175.662 481 174.989 480.327 174.496 479.46C174.016 478.593 173.776 477.593 173.776 476.46C173.776 475.327 174.022 474.327 174.516 473.46C175.022 472.593 175.709 471.927 176.576 471.46C177.442 470.98 178.409 470.74 179.476 470.74C180.542 470.74 181.509 470.98 182.376 471.46C183.242 471.927 183.922 472.593 184.416 473.46C184.922 474.327 185.176 475.327 185.176 476.46C185.176 477.593 184.916 478.593 184.396 479.46C183.889 480.327 183.196 481 182.316 481.48C181.449 481.947 180.476 482.18 179.396 482.18ZM179.396 479.74C179.902 479.74 180.376 479.62 180.816 479.38C181.269 479.127 181.629 478.753 181.896 478.26C182.162 477.767 182.296 477.167 182.296 476.46C182.296 475.407 182.016 474.6 181.456 474.04C180.909 473.467 180.236 473.18 179.436 473.18C178.636 473.18 177.962 473.467 177.416 474.04C176.882 474.6 176.616 475.407 176.616 476.46C176.616 477.513 176.876 478.327 177.396 478.9C177.929 479.46 178.596 479.74 179.396 479.74ZM202.455 470.92V482H199.635V480.6C199.275 481.08 198.802 481.46 198.215 481.74C197.642 482.007 197.015 482.14 196.335 482.14C195.469 482.14 194.702 481.96 194.035 481.6C193.369 481.227 192.842 480.687 192.455 479.98C192.082 479.26 191.895 478.407 191.895 477.42V470.92H194.695V477.02C194.695 477.9 194.915 478.58 195.355 479.06C195.795 479.527 196.395 479.76 197.155 479.76C197.929 479.76 198.535 479.527 198.975 479.06C199.415 478.58 199.635 477.9 199.635 477.02V470.92H202.455ZM208.018 472.52C208.378 472.013 208.871 471.593 209.498 471.26C210.138 470.913 210.865 470.74 211.678 470.74C212.625 470.74 213.478 470.973 214.238 471.44C215.011 471.907 215.618 472.573 216.058 473.44C216.511 474.293 216.738 475.287 216.738 476.42C216.738 477.553 216.511 478.56 216.058 479.44C215.618 480.307 215.011 480.98 214.238 481.46C213.478 481.94 212.625 482.18 211.678 482.18C210.865 482.18 210.145 482.013 209.518 481.68C208.905 481.347 208.405 480.927 208.018 480.42V487.28H205.218V470.92H208.018V472.52ZM213.878 476.42C213.878 475.753 213.738 475.18 213.458 474.7C213.191 474.207 212.831 473.833 212.378 473.58C211.938 473.327 211.458 473.2 210.938 473.2C210.431 473.2 209.951 473.333 209.498 473.6C209.058 473.853 208.698 474.227 208.418 474.72C208.151 475.213 208.018 475.793 208.018 476.46C208.018 477.127 208.151 477.707 208.418 478.2C208.698 478.693 209.058 479.073 209.498 479.34C209.951 479.593 210.431 479.72 210.938 479.72C211.458 479.72 211.938 479.587 212.378 479.32C212.831 479.053 213.191 478.673 213.458 478.18C213.738 477.687 213.878 477.1 213.878 476.42ZM221.573 467.2V482H218.773V467.2H221.573ZM229.259 482.18C228.192 482.18 227.232 481.947 226.379 481.48C225.526 481 224.852 480.327 224.359 479.46C223.879 478.593 223.639 477.593 223.639 476.46C223.639 475.327 223.886 474.327 224.379 473.46C224.886 472.593 225.572 471.927 226.439 471.46C227.306 470.98 228.272 470.74 229.339 470.74C230.406 470.74 231.372 470.98 232.239 471.46C233.106 471.927 233.786 472.593 234.279 473.46C234.786 474.327 235.039 475.327 235.039 476.46C235.039 477.593 234.779 478.593 234.259 479.46C233.752 480.327 233.059 481 232.179 481.48C231.312 481.947 230.339 482.18 229.259 482.18ZM229.259 479.74C229.766 479.74 230.239 479.62 230.679 479.38C231.132 479.127 231.492 478.753 231.759 478.26C232.026 477.767 232.159 477.167 232.159 476.46C232.159 475.407 231.879 474.6 231.319 474.04C230.772 473.467 230.099 473.18 229.299 473.18C228.499 473.18 227.826 473.467 227.279 474.04C226.746 474.6 226.479 475.407 226.479 476.46C226.479 477.513 226.739 478.327 227.259 478.9C227.792 479.46 228.459 479.74 229.259 479.74ZM236.373 476.42C236.373 475.3 236.593 474.307 237.033 473.44C237.486 472.573 238.093 471.907 238.853 471.44C239.626 470.973 240.486 470.74 241.433 470.74C242.26 470.74 242.98 470.907 243.593 471.24C244.22 471.573 244.72 471.993 245.093 472.5V470.92H247.913V482H245.093V480.38C244.733 480.9 244.233 481.333 243.593 481.68C242.966 482.013 242.24 482.18 241.413 482.18C240.48 482.18 239.626 481.94 238.853 481.46C238.093 480.98 237.486 480.307 237.033 479.44C236.593 478.56 236.373 477.553 236.373 476.42ZM245.093 476.46C245.093 475.78 244.96 475.2 244.693 474.72C244.426 474.227 244.066 473.853 243.613 473.6C243.16 473.333 242.673 473.2 242.153 473.2C241.633 473.2 241.153 473.327 240.713 473.58C240.273 473.833 239.913 474.207 239.633 474.7C239.366 475.18 239.233 475.753 239.233 476.42C239.233 477.087 239.366 477.673 239.633 478.18C239.913 478.673 240.273 479.053 240.713 479.32C241.166 479.587 241.646 479.72 242.153 479.72C242.673 479.72 243.16 479.593 243.613 479.34C244.066 479.073 244.426 478.7 244.693 478.22C244.96 477.727 245.093 477.14 245.093 476.46ZM249.928 476.42C249.928 475.3 250.148 474.307 250.588 473.44C251.041 472.573 251.654 471.907 252.428 471.44C253.201 470.973 254.061 470.74 255.008 470.74C255.728 470.74 256.414 470.9 257.068 471.22C257.721 471.527 258.241 471.94 258.628 472.46V467.2H261.468V482H258.628V480.36C258.281 480.907 257.794 481.347 257.168 481.68C256.541 482.013 255.814 482.18 254.988 482.18C254.054 482.18 253.201 481.94 252.428 481.46C251.654 480.98 251.041 480.307 250.588 479.44C250.148 478.56 249.928 477.553 249.928 476.42ZM258.648 476.46C258.648 475.78 258.514 475.2 258.248 474.72C257.981 474.227 257.621 473.853 257.168 473.6C256.714 473.333 256.228 473.2 255.708 473.2C255.188 473.2 254.708 473.327 254.268 473.58C253.828 473.833 253.468 474.207 253.188 474.7C252.921 475.18 252.788 475.753 252.788 476.42C252.788 477.087 252.921 477.673 253.188 478.18C253.468 478.673 253.828 479.053 254.268 479.32C254.721 479.587 255.201 479.72 255.708 479.72C256.228 479.72 256.714 479.593 257.168 479.34C257.621 479.073 257.981 478.7 258.248 478.22C258.514 477.727 258.648 477.14 258.648 476.46ZM149.116 504.18C148.209 504.18 147.396 504.02 146.676 503.7C145.956 503.367 145.383 502.92 144.956 502.36C144.543 501.8 144.316 501.18 144.276 500.5H147.096C147.149 500.927 147.356 501.28 147.716 501.56C148.089 501.84 148.549 501.98 149.096 501.98C149.629 501.98 150.043 501.873 150.336 501.66C150.643 501.447 150.796 501.173 150.796 500.84C150.796 500.48 150.609 500.213 150.236 500.04C149.876 499.853 149.296 499.653 148.496 499.44C147.669 499.24 146.989 499.033 146.456 498.82C145.936 498.607 145.483 498.28 145.096 497.84C144.723 497.4 144.536 496.807 144.536 496.06C144.536 495.447 144.709 494.887 145.056 494.38C145.416 493.873 145.923 493.473 146.576 493.18C147.243 492.887 148.023 492.74 148.916 492.74C150.236 492.74 151.289 493.073 152.076 493.74C152.863 494.393 153.296 495.28 153.376 496.4H150.696C150.656 495.96 150.469 495.613 150.136 495.36C149.816 495.093 149.383 494.96 148.836 494.96C148.329 494.96 147.936 495.053 147.656 495.24C147.389 495.427 147.256 495.687 147.256 496.02C147.256 496.393 147.443 496.68 147.816 496.88C148.189 497.067 148.769 497.26 149.556 497.46C150.356 497.66 151.016 497.867 151.536 498.08C152.056 498.293 152.503 498.627 152.876 499.08C153.263 499.52 153.463 500.107 153.476 500.84C153.476 501.48 153.296 502.053 152.936 502.56C152.589 503.067 152.083 503.467 151.416 503.76C150.763 504.04 149.996 504.18 149.116 504.18ZM166.235 492.92V504H163.415V502.6C163.055 503.08 162.581 503.46 161.995 503.74C161.421 504.007 160.795 504.14 160.115 504.14C159.248 504.14 158.481 503.96 157.815 503.6C157.148 503.227 156.621 502.687 156.235 501.98C155.861 501.26 155.675 500.407 155.675 499.42V492.92H158.475V499.02C158.475 499.9 158.695 500.58 159.135 501.06C159.575 501.527 160.175 501.76 160.935 501.76C161.708 501.76 162.315 501.527 162.755 501.06C163.195 500.58 163.415 499.9 163.415 499.02V492.92H166.235ZM168.277 498.46C168.277 497.313 168.511 496.313 168.977 495.46C169.444 494.593 170.091 493.927 170.917 493.46C171.744 492.98 172.691 492.74 173.757 492.74C175.131 492.74 176.264 493.087 177.157 493.78C178.064 494.46 178.671 495.42 178.977 496.66H175.957C175.797 496.18 175.524 495.807 175.137 495.54C174.764 495.26 174.297 495.12 173.737 495.12C172.937 495.12 172.304 495.413 171.837 496C171.371 496.573 171.137 497.393 171.137 498.46C171.137 499.513 171.371 500.333 171.837 500.92C172.304 501.493 172.937 501.78 173.737 501.78C174.871 501.78 175.611 501.273 175.957 500.26H178.977C178.671 501.46 178.064 502.413 177.157 503.12C176.251 503.827 175.117 504.18 173.757 504.18C172.691 504.18 171.744 503.947 170.917 503.48C170.091 503 169.444 502.333 168.977 501.48C168.511 500.613 168.277 499.607 168.277 498.46ZM180.308 498.46C180.308 497.313 180.542 496.313 181.008 495.46C181.475 494.593 182.122 493.927 182.948 493.46C183.775 492.98 184.722 492.74 185.788 492.74C187.162 492.74 188.295 493.087 189.188 493.78C190.095 494.46 190.702 495.42 191.008 496.66H187.988C187.828 496.18 187.555 495.807 187.168 495.54C186.795 495.26 186.328 495.12 185.768 495.12C184.968 495.12 184.335 495.413 183.868 496C183.402 496.573 183.168 497.393 183.168 498.46C183.168 499.513 183.402 500.333 183.868 500.92C184.335 501.493 184.968 501.78 185.768 501.78C186.902 501.78 187.642 501.273 187.988 500.26H191.008C190.702 501.46 190.095 502.413 189.188 503.12C188.282 503.827 187.148 504.18 185.788 504.18C184.722 504.18 183.775 503.947 182.948 503.48C182.122 503 181.475 502.333 181.008 501.48C180.542 500.613 180.308 499.607 180.308 498.46ZM203.36 498.22C203.36 498.62 203.333 498.98 203.28 499.3H195.18C195.246 500.1 195.526 500.727 196.02 501.18C196.513 501.633 197.12 501.86 197.84 501.86C198.88 501.86 199.62 501.413 200.06 500.52H203.08C202.76 501.587 202.146 502.467 201.24 503.16C200.333 503.84 199.22 504.18 197.9 504.18C196.833 504.18 195.873 503.947 195.02 503.48C194.18 503 193.52 502.327 193.04 501.46C192.573 500.593 192.34 499.593 192.34 498.46C192.34 497.313 192.573 496.307 193.04 495.44C193.506 494.573 194.16 493.907 195 493.44C195.84 492.973 196.806 492.74 197.9 492.74C198.953 492.74 199.893 492.967 200.72 493.42C201.56 493.873 202.206 494.52 202.66 495.36C203.126 496.187 203.36 497.14 203.36 498.22ZM200.46 497.42C200.446 496.7 200.186 496.127 199.68 495.7C199.173 495.26 198.553 495.04 197.82 495.04C197.126 495.04 196.54 495.253 196.06 495.68C195.593 496.093 195.306 496.673 195.2 497.42H200.46ZM209.643 504.18C208.737 504.18 207.923 504.02 207.203 503.7C206.483 503.367 205.91 502.92 205.483 502.36C205.07 501.8 204.843 501.18 204.803 500.5H207.623C207.677 500.927 207.883 501.28 208.243 501.56C208.617 501.84 209.077 501.98 209.623 501.98C210.157 501.98 210.57 501.873 210.863 501.66C211.17 501.447 211.323 501.173 211.323 500.84C211.323 500.48 211.137 500.213 210.763 500.04C210.403 499.853 209.823 499.653 209.023 499.44C208.197 499.24 207.517 499.033 206.983 498.82C206.463 498.607 206.01 498.28 205.623 497.84C205.25 497.4 205.063 496.807 205.063 496.06C205.063 495.447 205.237 494.887 205.583 494.38C205.943 493.873 206.45 493.473 207.103 493.18C207.77 492.887 208.55 492.74 209.443 492.74C210.763 492.74 211.817 493.073 212.603 493.74C213.39 494.393 213.823 495.28 213.903 496.4H211.223C211.183 495.96 210.997 495.613 210.663 495.36C210.343 495.093 209.91 494.96 209.363 494.96C208.857 494.96 208.463 495.053 208.183 495.24C207.917 495.427 207.783 495.687 207.783 496.02C207.783 496.393 207.97 496.68 208.343 496.88C208.717 497.067 209.297 497.26 210.083 497.46C210.883 497.66 211.543 497.867 212.063 498.08C212.583 498.293 213.03 498.627 213.403 499.08C213.79 499.52 213.99 500.107 214.003 500.84C214.003 501.48 213.823 502.053 213.463 502.56C213.117 503.067 212.61 503.467 211.943 503.76C211.29 504.04 210.523 504.18 209.643 504.18ZM220.542 504.18C219.635 504.18 218.822 504.02 218.102 503.7C217.382 503.367 216.809 502.92 216.382 502.36C215.969 501.8 215.742 501.18 215.702 500.5H218.522C218.575 500.927 218.782 501.28 219.142 501.56C219.515 501.84 219.975 501.98 220.522 501.98C221.055 501.98 221.469 501.873 221.762 501.66C222.069 501.447 222.222 501.173 222.222 500.84C222.222 500.48 222.035 500.213 221.662 500.04C221.302 499.853 220.722 499.653 219.922 499.44C219.095 499.24 218.415 499.033 217.882 498.82C217.362 498.607 216.909 498.28 216.522 497.84C216.149 497.4 215.962 496.807 215.962 496.06C215.962 495.447 216.135 494.887 216.482 494.38C216.842 493.873 217.349 493.473 218.002 493.18C218.669 492.887 219.449 492.74 220.342 492.74C221.662 492.74 222.715 493.073 223.502 493.74C224.289 494.393 224.722 495.28 224.802 496.4H222.122C222.082 495.96 221.895 495.613 221.562 495.36C221.242 495.093 220.809 494.96 220.262 494.96C219.755 494.96 219.362 495.053 219.082 495.24C218.815 495.427 218.682 495.687 218.682 496.02C218.682 496.393 218.869 496.68 219.242 496.88C219.615 497.067 220.195 497.26 220.982 497.46C221.782 497.66 222.442 497.867 222.962 498.08C223.482 498.293 223.929 498.627 224.302 499.08C224.689 499.52 224.889 500.107 224.902 500.84C224.902 501.48 224.722 502.053 224.362 502.56C224.015 503.067 223.509 503.467 222.842 503.76C222.189 504.04 221.422 504.18 220.542 504.18ZM232.28 495.22H230.34V504H227.5V495.22H226.24V492.92H227.5V492.36C227.5 491 227.887 490 228.66 489.36C229.434 488.72 230.6 488.42 232.16 488.46V490.82C231.48 490.807 231.007 490.92 230.74 491.16C230.474 491.4 230.34 491.833 230.34 492.46V492.92H232.28V495.22ZM244.555 492.92V504H241.735V502.6C241.375 503.08 240.902 503.46 240.315 503.74C239.742 504.007 239.115 504.14 238.435 504.14C237.568 504.14 236.802 503.96 236.135 503.6C235.468 503.227 234.942 502.687 234.555 501.98C234.182 501.26 233.995 500.407 233.995 499.42V492.92H236.795V499.02C236.795 499.9 237.015 500.58 237.455 501.06C237.895 501.527 238.495 501.76 239.255 501.76C240.028 501.76 240.635 501.527 241.075 501.06C241.515 500.58 241.735 499.9 241.735 499.02V492.92H244.555ZM250.118 489.2V504H247.318V489.2H250.118Z" fill="black"/>
<path d="M197 263.083L203.791 263.38L210.53 264.267L217.166 265.738L223.649 267.782L229.929 270.384L235.958 273.522L241.691 277.174L247.084 281.312L252.095 285.905L256.688 290.916L260.826 296.309L264.478 302.042L267.616 308.071L270.218 314.351L272.262 320.834L273.733 327.47L274.62 334.209L274.917 341L274.62 347.791L273.733 354.53L272.262 361.166L270.218 367.649L267.616 373.929L264.478 379.958L260.826 385.691L256.688 391.084L252.095 396.095L247.084 400.688L241.691 404.826L235.958 408.478L229.929 411.616L223.649 414.218L217.166 416.262L210.53 417.733L203.791 418.62L197 418.917L190.209 418.62L183.47 417.733L176.834 416.262L170.351 414.218L164.071 411.616L158.042 408.478L152.309 404.826L146.916 400.688L141.905 396.095L137.312 391.084L133.174 385.691L129.522 379.958L126.383 373.929L123.782 367.649L121.738 361.166L120.267 354.53L119.38 347.791L119.083 341L119.38 334.209L120.267 327.47L121.738 320.834L123.782 314.351L126.383 308.071L129.522 302.042L133.174 296.309L137.312 290.916L141.905 285.905L146.916 281.312L152.309 277.174L158.042 273.522L164.071 270.384L170.351 267.782L176.834 265.738L183.47 264.267L190.209 263.38L197 263.083Z" stroke="#279858" stroke-width="15"/>
<path d="M155.75 334.308V327.684H166.838V354H159.458V334.308H155.75ZM170.427 340.464C170.427 336.336 171.267 333.084 172.947 330.708C174.627 328.332 177.267 327.144 180.867 327.144C184.467 327.144 187.107 328.332 188.787 330.708C190.491 333.084 191.343 336.336 191.343 340.464C191.343 344.64 190.503 347.916 188.823 350.292C187.143 352.668 184.491 353.856 180.867 353.856C177.243 353.856 174.591 352.668 172.911 350.292C171.255 347.916 170.427 344.64 170.427 340.464ZM184.359 340.464C184.359 338.304 184.131 336.66 183.675 335.532C183.219 334.38 182.283 333.804 180.867 333.804C179.451 333.804 178.515 334.38 178.059 335.532C177.603 336.66 177.375 338.304 177.375 340.464C177.375 342.672 177.591 344.352 178.023 345.504C178.479 346.632 179.427 347.196 180.867 347.196C182.307 347.196 183.243 346.632 183.675 345.504C184.131 344.352 184.359 342.672 184.359 340.464ZM194.088 340.464C194.088 336.336 194.928 333.084 196.608 330.708C198.288 328.332 200.928 327.144 204.528 327.144C208.128 327.144 210.768 328.332 212.448 330.708C214.152 333.084 215.004 336.336 215.004 340.464C215.004 344.64 214.164 347.916 212.484 350.292C210.804 352.668 208.152 353.856 204.528 353.856C200.904 353.856 198.252 352.668 196.572 350.292C194.916 347.916 194.088 344.64 194.088 340.464ZM208.02 340.464C208.02 338.304 207.792 336.66 207.336 335.532C206.88 334.38 205.944 333.804 204.528 333.804C203.112 333.804 202.176 334.38 201.72 335.532C201.264 336.66 201.036 338.304 201.036 340.464C201.036 342.672 201.252 344.352 201.684 345.504C202.14 346.632 203.088 347.196 204.528 347.196C205.968 347.196 206.904 346.632 207.336 345.504C207.792 344.352 208.02 342.672 208.02 340.464ZM217.28 334.452C217.28 332.412 217.856 330.852 219.008 329.772C220.16 328.692 221.672 328.152 223.544 328.152C225.392 328.152 226.892 328.692 228.044 329.772C229.196 330.852 229.772 332.412 229.772 334.452C229.772 336.468 229.196 338.028 228.044 339.132C226.892 340.212 225.392 340.752 223.544 340.752C221.696 340.752 220.184 340.212 219.008 339.132C217.856 338.028 217.28 336.468 217.28 334.452ZM242.84 328.548L229.196 354H222.428L236.072 328.548H242.84ZM223.508 332.292C222.524 332.292 222.032 333.012 222.032 334.452C222.032 335.892 222.524 336.612 223.508 336.612C223.988 336.612 224.36 336.432 224.624 336.072C224.912 335.712 225.056 335.172 225.056 334.452C225.056 333.732 224.912 333.192 224.624 332.832C224.36 332.472 223.988 332.292 223.508 332.292ZM235.496 348.06C235.496 346.044 236.072 344.496 237.224 343.416C238.4 342.312 239.912 341.76 241.76 341.76C243.608 341.76 245.096 342.312 246.224 343.416C247.376 344.496 247.952 346.044 247.952 348.06C247.952 350.1 247.376 351.672 246.224 352.776C245.096 353.856 243.608 354.396 241.76 354.396C239.912 354.396 238.4 353.856 237.224 352.776C236.072 351.672 235.496 350.1 235.496 348.06ZM241.724 345.9C240.716 345.9 240.212 346.62 240.212 348.06C240.212 349.524 240.716 350.256 241.724 350.256C242.18 350.256 242.54 350.076 242.804 349.716C243.092 349.332 243.236 348.78 243.236 348.06C243.236 347.364 243.092 346.836 242.804 346.476C242.54 346.092 242.18 345.9 241.724 345.9Z" fill="black"/>
</g>
<defs>
<filter id="filter0_d_16_216" x="32" y="698" width="329" height="99" filterUnits="userSpaceOnUse" color-interpolation-filters="sRGB">
<feFlood flood-opacity="0" result="BackgroundImageFix"/>
<feColorMatrix in="SourceAlpha" type="matrix" values="0 0 0 0 0 0 0 0 0 0 0 0 0 0 0 0 0 0 127 0" result="hardAlpha"/>
<feOffset dy="8"/>
<feGaussianBlur stdDeviation="8"/>
<feComposite in2="hardAlpha" operator="out"/>
<feColorMatrix type="matrix" values="0 0 0 0 0 0 0 0 0 0 0 0 0 0 0 0 0 0 0.1 0"/>
<feBlend mode="normal" in2="BackgroundImageFix" result="effect1_dropShadow_16_216"/>
<feBlend mode="normal" in="SourceGraphic" in2="effect1_dropShadow_16_216" result="shape"/>
</filter>
<clipPath id="clip0_16_216">
<rect width="393" height="852" rx="30" fill="white"/>
</clipPath>
</defs>
</svg>
